<?xml version="1.0" encoding="utf-8"?>
<svg version="1.1" id="图层_1" xmlns="http://www.w3.org/2000/svg" xmlns:xlink="http://www.w3.org/1999/xlink" x="0px" y="0px"
	 viewBox="0 0 132 132" style="enable-background:new 0 0 132 132;" xml:space="preserve">
<style type="text/css">
	.st0{fill-rule:evenodd;clip-rule:evenodd;fill:currentColor;}
</style>
<desc>Created with Pixso.</desc>
<path id="CN" class="st0" d="M60.9,89.8l-7.6-4.4c-2.1,4.2-4.8,7.2-8.2,9.1c-2.9,1.7-6.4,2.5-10.3,2.5c-4.9,0-9.3-1.3-13.1-3.9
	c-3.8-2.6-6.7-6.3-8.8-11C10.9,77.5,9.9,72.1,9.9,66c0-6.1,1-11.5,3.1-16.2c1.8-4.1,4.2-7.4,7.3-9.9c0.5-0.4,1-0.7,1.5-1.1
	c1.2-0.8,2.5-1.5,3.8-2.1c2.8-1.2,5.9-1.8,9.3-1.8c3.9,0,7.4,0.8,10.3,2.5c3.4,1.9,6.1,5,8.2,9.2l7.6-4.4c-1.2-2.7-2.7-5.1-4.6-7.2
	c-1.6-1.7-3.4-3.2-5.5-4.5c-0.7-0.4-1.4-0.8-2.1-1.2c-4-2-8.6-3-13.7-3c-4,0-7.8,0.6-11.4,1.9c-2.2,0.8-4.4,1.8-6.5,3.1
	c-1.2,0.8-2.4,1.6-3.5,2.6c-3.7,3-6.7,6.9-9.1,11.5C1.5,51.4,0,58.2,0,66c0,7.7,1.5,14.6,4.6,20.6c2.3,4.5,5.3,8.3,8.9,11.4
	c1.2,1,2.4,1.9,3.8,2.8c2.1,1.3,4.3,2.4,6.5,3.2c3.5,1.2,7.3,1.9,11.3,1.9c6,0,11.2-1.4,15.8-4.2c2.1-1.3,3.9-2.8,5.5-4.5
	C58.2,94.9,59.7,92.5,60.9,89.8z M123.2,27.5v59.6L80.3,27.5h-7.9v77h8.8V44.9l42.8,59.7h7.9v-77H123.2z"/>
</svg>
