<?xml version="1.0" encoding="utf-8"?>
<!-- Generator: Adobe Illustrator 26.0.2, SVG Export Plug-In . SVG Version: 6.00 Build 0)  -->
<svg version="1.1" id="图层_1" xmlns="http://www.w3.org/2000/svg" xmlns:xlink="http://www.w3.org/1999/xlink" x="0px" y="0px"
	 viewBox="0 0 132 132" style="enable-background:new 0 0 132 132;" xml:space="preserve">
<style type="text/css">
	.st0{fill:currentColor;}
</style>
<desc>Created with Pixso.</desc>
<path id="路径" class="st0" d="M64.2,12.4c-10.7,0.9-20.7,5.2-28.9,12.6c-20.3,18.3-22,49.7-3.7,70c18.3,20.3,49.7,22,70,3.7
	c4.5-4,8.1-8.7,10.8-13.9c1.4-2.7-0.7-5.8-3.7-5.6c-13,1.2-25.9-3.8-34.8-13.7c-11.8-13.2-14.1-32.1-6-47.5
	C69.3,15.3,67.3,12.1,64.2,12.4z M58.3,21c-5.6,16.7-2.1,36,10.1,49.5l1.1,1.2c8.6,9,20.1,14.2,32.2,15.1c-1.6,1.9-3.1,4.5-5,6.2
	c-17.2,15.5-43.7,14.1-59.3-3.1C21.8,72.6,23.2,46,40.5,30.6c4.7-4.3,10.2-7.3,16.1-9.1L58.3,21z"/>
</svg>
