<?xml version="1.0" encoding="utf-8"?>
<!-- Generator: Adobe Illustrator 26.0.2, SVG Export Plug-In . SVG Version: 6.00 Build 0)  -->
<svg version="1.1" id="图层_1" xmlns="http://www.w3.org/2000/svg" xmlns:xlink="http://www.w3.org/1999/xlink" x="0px" y="0px"
	 viewBox="0 0 132 132" style="enable-background:new 0 0 132 132;" xml:space="preserve">
<style type="text/css">
	.st0{fill-rule:evenodd;clip-rule:evenodd;fill:currentColor;}
</style>
<desc>Created with Pixso.</desc>
<path id="形状结合" class="st0" d="M66,107.2c2.2,0,4.1,1.8,4.1,4.1v8.2c0,2.2-1.9,4.1-4.1,4.1c-2.3,0-4.1-1.9-4.1-4.1v-8.2
	C61.9,109.1,63.7,107.2,66,107.2z M36.8,95.1c1.6,1.6,1.6,4.2,0,5.9l-5.9,5.8c-1.6,1.7-4.2,1.7-5.8,0c-1.6-1.6-1.6-4.2,0-5.8
	l5.8-5.9C32.6,93.6,35.2,93.6,36.8,95.1z M101,95.1l5.8,5.9c1.7,1.6,1.7,4.2,0,5.8c-1.6,1.7-4.2,1.7-5.8,0l-5.8-5.8
	c-1.6-1.7-1.6-4.2,0-5.9C96.8,93.6,99.3,93.6,101,95.1z M66,33c18.2,0,33,14.8,33,33c0,18.2-14.8,33-33,33c-18.2,0-33-14.8-33-33
	C33,47.8,47.8,33,66,33z M66,41.2c-13.7,0-24.8,11-24.8,24.8c0,13.6,11,24.8,24.8,24.8c13.6,0,24.8-11.1,24.8-24.8
	C90.8,52.3,79.6,41.2,66,41.2z M20.6,61.9c2.2,0,4.1,1.8,4.1,4.1c0,2.2-1.9,4.1-4.1,4.1h-8.3c-2.3,0-4.1-1.9-4.1-4.1
	c0-2.3,1.8-4.1,4.1-4.1H20.6z M119.6,61.9c2.2,0,4.1,1.8,4.1,4.1c0,2.2-1.9,4.1-4.1,4.1h-8.2c-2.3,0-4.1-1.9-4.1-4.1
	c0-2.3,1.8-4.1,4.1-4.1H119.6z M106.8,25.2c1.7,1.6,1.7,4.2,0,5.8l-5.8,5.9c-1.6,1.6-4.2,1.6-5.8,0c-1.6-1.6-1.6-4.2,0-5.9l5.8-5.8
	C102.5,23.5,105.2,23.5,106.8,25.2z M30.9,25.2l5.9,5.8c1.6,1.7,1.6,4.3,0,5.9c-1.6,1.6-4.2,1.6-5.9,0l-5.8-5.9
	c-1.6-1.6-1.6-4.2,0-5.8C26.7,23.5,29.4,23.5,30.9,25.2z M66,8.2c2.2,0,4.1,1.8,4.1,4.1v8.3c0,2.2-1.9,4.1-4.1,4.1
	c-2.3,0-4.1-1.9-4.1-4.1v-8.3C61.9,10.1,63.7,8.2,66,8.2z"/>
</svg>
