<?xml version="1.0" encoding="utf-8"?>
<!-- Generator: Adobe Illustrator 26.0.2, SVG Export Plug-In . SVG Version: 6.00 Build 0)  -->
<svg version="1.1" id="图层_1" xmlns="http://www.w3.org/2000/svg" xmlns:xlink="http://www.w3.org/1999/xlink" x="0px" y="0px"
	 viewBox="0 0 132 132" style="enable-background:new 0 0 132 132;" xml:space="preserve">
<style type="text/css">
	.st0{fill-rule:evenodd;clip-rule:evenodd;fill:currentColor;}
</style>
<desc>Created with Pixso.</desc>
<path id="合并" class="st0" d="M121,26.8c0-6.5-5.3-11.8-11.8-11.8H22.8C16.3,15,11,20.3,11,26.8v78.6c0,6.5,5.3,11.8,11.8,11.8
	h86.4c6.5,0,11.8-5.3,11.8-11.8V26.8z M113.1,46.4V26.8c0-2.2-1.8-3.9-3.9-3.9H22.8c-2.2,0-3.9,1.8-3.9,3.9v19.6H113.1z M18.9,54.3
	v51.1c0,2.2,1.8,3.9,3.9,3.9h86.4c2.2,0,3.9-1.8,3.9-3.9V54.3H18.9z M30.6,30.7c2.1,0,3.9,1.7,3.9,3.9c0,2.1-1.8,3.9-3.9,3.9
	c-2.2,0-3.9-1.8-3.9-3.9C26.7,32.4,28.4,30.7,30.6,30.7z M45.7,34.6c0-2.2-1.7-3.9-3.9-3.9c-2.1,0-3.9,1.7-3.9,3.9
	c0,2.1,1.8,3.9,3.9,3.9C44,38.6,45.7,36.8,45.7,34.6z M57,34.6c0-2.2-1.6-3.9-3.9-3.9c-2.1,0-3.9,1.7-3.9,3.9c0,2.1,1.8,3.9,3.9,3.9
	C55.3,38.6,57,36.8,57,34.6z"/>
</svg>
